<svg id="male"  viewBox="0 0 128 128"  xmlns="http://www.w3.org/2000/svg"><path d="m69 74c-20.9867 0-38 14.5827-38 32.5714v17.4286h76v-17.4286c0-17.9887-17.0132-32.5714-38-32.5714z" fill="#f4f4f4"/><path d="m92 80.6486a42.07 42.07 0 0 0 -23-6.6486 42.07 42.07 0 0 0 -23 6.6486l-4 17.3514v26h54v-26z" fill="#464646"/><path d="m68 83h2v41h-2z" fill="#373737"/><path d="m69 84a8 8 0 0 1 -8-8v-11h16v11a8 8 0 0 1 -8 8z" fill="#f7b991"/><path d="m65 7h8a22 22 0 0 1 22 22v8a26 26 0 0 1 -26 26 26 26 0 0 1 -26-26v-8a22 22 0 0 1 22-22z" fill="#82543a"/><path d="m88.5 54.25h3a6.0176 6.0176 0 0 0 6-6 6.0176 6.0176 0 0 0 -6-6h-3a6.0176 6.0176 0 0 0 -6 6 6.0176 6.0176 0 0 0 6 6z" fill="#f7b991"/><path d="m49.5 54.25h-3a6.0176 6.0176 0 0 1 -6-6 6.0176 6.0176 0 0 1 6-6h3a6.0176 6.0176 0 0 1 6 6 6.0176 6.0176 0 0 1 -6 6z" fill="#f7b991"/><rect fill="#fdcba8" height="51" rx="22" width="44" x="47" y="22"/><path d="m75 61a6 6 0 1 1 -12 0z" fill="#e62626"/><path d="m69 57a2 2 0 0 1 -2-2v-4a2 2 0 0 1 2-2 2 2 0 0 1 2 2v4a2 2 0 0 1 -2 2z" fill="#f7b991"/><circle cx="57" cy="45" fill="#82543a" r="3"/><circle cx="81" cy="45" fill="#82543a" r="3"/><path d="m79 89-10-5 8-11 6 3z" fill="#e6e6e6"/><path d="m59 89 10-5-8-11-6 3z" fill="#e6e6e6"/><g fill="#82543a"><path d="m86.0873 39.6941a8.4177 8.4177 0 0 0 -10.1746 0 1.2388 1.2388 0 0 1 -1.5626.0518 1.1267 1.1267 0 0 1 .3636-1.6314 10.4019 10.4019 0 0 1 12.5727 0 1.1268 1.1268 0 0 1 .3635 1.6314 1.2387 1.2387 0 0 1 -1.5626-.0518z"/><path d="m62.0873 39.6941a8.4177 8.4177 0 0 0 -10.1746 0 1.2388 1.2388 0 0 1 -1.5626.0518 1.1268 1.1268 0 0 1 .3635-1.6314 10.4021 10.4021 0 0 1 12.5728 0 1.1268 1.1268 0 0 1 .3635 1.6314 1.2387 1.2387 0 0 1 -1.5626-.0518z"/><path d="m70 17.3-19-.3c0 11.0457 10 19 20 19 0 0-6-7-1-18.7z"/><path d="m71.2154 12h-3.2154v5.468c0 10.2795 6.314 18.732 14.4 19.732a16.7892 16.7892 0 0 1 -5.1558-4.6981 20.6855 20.6855 0 0 0 11.5404 3.4981h3.2154v-3.2154a20.7846 20.7846 0 0 0 -20.7846-20.7846z"/></g><rect fill="#e6e6e6" height="24" rx="2" width="16" x="21" y="100"/><path d="m29 109.4689-.9512-.9513a2.3718 2.3718 0 0 0 -3.3542 0 2.3717 2.3717 0 0 0 0 3.3541l4.3054 4.3054 4.3053-4.3054a2.3717 2.3717 0 0 0 0-3.3541 2.3718 2.3718 0 0 0 -3.3542 0z" fill="#e62626"/><path d="m45.9969 109.0771a7.9529 7.9529 0 0 0 -3.9969-1.0771v8z" fill="#fff"/><path d="m48.9228 112.003a8.0277 8.0277 0 0 0 -2.9259-2.9259l-3.9969 6.9229z" fill="#fab141"/><path d="m42 108a7.9536 7.9536 0 0 0 -3.997 1.0771l3.997 6.9229z" fill="#fab141"/><path d="m50 116a7.9527 7.9527 0 0 0 -1.0772-3.997l-6.9228 3.997z" fill="#fff"/><path d="m48.9228 119.9969a7.952 7.952 0 0 0 1.0772-3.9969h-8z" fill="#fab141"/><path d="m38.003 109.0771a8.0285 8.0285 0 0 0 -2.9259 2.9259l6.9229 3.997z" fill="#fff"/><path d="m42 124a7.952 7.952 0 0 0 3.9969-1.0772l-3.9969-6.9228z" fill="#fab141"/><path d="m38.003 122.9228a7.9527 7.9527 0 0 0 3.997 1.0772v-8z" fill="#fff"/><path d="m35.0771 112.003a7.9536 7.9536 0 0 0 -1.0771 3.997h8z" fill="#fab141"/><path d="m48.9228 119.9969-6.9228-3.9969 3.9969 6.9228a8.027 8.027 0 0 0 2.9259-2.9259z" fill="#fff"/><path d="m35.0771 119.9969a8.0277 8.0277 0 0 0 2.9259 2.9259l3.997-6.9228z" fill="#fab141"/><path d="m34 116a7.9529 7.9529 0 0 0 1.0771 3.9969l6.9229-3.9969z" fill="#fff"/><circle cx="42" cy="116" fill="#ffd75a" r="5"/></svg>